ffmpeg started on 2025-06-09 at 17:56:48
Report written to "D:\Convert\FFMetrics\reports\ssim_report-6.txt"
Log level: 32
Command line:
ffmpeg -hide_banner -nostdin -i "G:\\\xc0\xed\xe8\xec\xe5\\\xce\xed\xe3\xee\xe8\xed\xe3\xe8\\!_30_\xc2\xe5\xf1\xed\xe0_2023\\\xd1\xeb\xe8\xf8\xea\xee\xec \xec\xe8\xeb\xfb\xe9 \xea\xf0\xe8\xe7\xe8\xf1\\Kawaisugi_Crisis_[03]_[AniLibria_TV]_[WEBRip_1080p]_HEVC.mkv" -i "G:\\\xc0\xed\xe8\xec\xe5\\\xce\xed\xe3\xee\xe8\xed\xe3\xe8\\!_30_\xc2\xe5\xf1\xed\xe0_2023\\\xd1\xeb\xe8\xf8\xea\xee\xec \xec\xe8\xeb\xfb\xe9 \xea\xf0\xe8\xe7\xe8\xf1\\Kawaisugi_Crisis_[03]_[AniLibria_TV]_[WEBRip_1080p].mkv" -lavfi "[0:v]settb=AVTB,setpts=PTS-STARTPTS,format=pix_fmts=yuv420p10,fps=24000/1001,scale=1920:1080:flags=bicubic[main];[1:v]settb=AVTB,setpts=PTS-STARTPTS,format=pix_fmts=yuv420p,fps=24000/1001,scale=1920:1080:flags=bicubic[ref];[main][ref]ssim=eof_action=endall:stats_file='D\\:/Convert/FFMetrics/logs/ssim_logfile-6.txt'" -f null -
Input #0, matroska,webm, from 'G:\Аниме\Онгоинги\!_30_Весна_2023\Слишком милый кризис\Kawaisugi_Crisis_[03]_[AniLibria_TV]_[WEBRip_1080p]_HEVC.mkv':
  Metadata:
    ENCODER         : Lavf61.7.100
  Duration: 00:23:42.51, start: -0.021000, bitrate: 1184 kb/s
  Stream #0:0(jpn): Video: hevc (Main 10), yuv420p10le(pc, bt709, progressive), 1920x1080 [SAR 1:1 DAR 16:9], 23.98 fps, 23.98 tbr, 1k tbn (default) (forced)
      Metadata:
        ENCODER         : Lavc61.19.100 libx265
        BPS             : 986434
        DURATION        : 00:23:42.504708333
        NUMBER_OF_FRAMES: 34106
        NUMBER_OF_BYTES : 175400824
        _STATISTICS_WRITING_APP: mkvpropedit v66.0.0 ('Josie') 64-bit
        _STATISTICS_WRITING_DATE_UTC: 2025-06-09 12:58:12
        _STATISTICS_TAGS: BPS DURATION NUMBER_OF_FRAMES NUMBER_OF_BYTES
  Stream #0:1(rus): Audio: aac (LC), 48000 Hz, stereo, fltp (default) (forced)
      Metadata:
        title           : AniLibria.TV
        ENCODER         : Lavc61.19.100 aac
        BPS             : 193453
        DURATION        : 00:23:42.400000000
        NUMBER_OF_FRAMES: 66676
        NUMBER_OF_BYTES : 34396004
        _STATISTICS_WRITING_APP: mkvpropedit v66.0.0 ('Josie') 64-bit
        _STATISTICS_WRITING_DATE_UTC: 2025-06-09 12:58:12
        _STATISTICS_TAGS: BPS DURATION NUMBER_OF_FRAMES NUMBER_OF_BYTES
  Stream #0:2(rus): Subtitle: ass (ssa) (default) (forced)
      Metadata:
        title           : Надписи
        BPS             : 0
        DURATION        : 00:00:00.000000000
        NUMBER_OF_FRAMES: 0
        NUMBER_OF_BYTES : 0
        _STATISTICS_WRITING_APP: mkvpropedit v66.0.0 ('Josie') 64-bit
        _STATISTICS_WRITING_DATE_UTC: 2025-06-09 12:58:12
        _STATISTICS_TAGS: BPS DURATION NUMBER_OF_FRAMES NUMBER_OF_BYTES
  Stream #0:3(rus): Subtitle: ass (ssa)
      Metadata:
        title           : Субтитры
        BPS             : 222
        DURATION        : 00:23:38.880000000
        NUMBER_OF_FRAMES: 389
        NUMBER_OF_BYTES : 39544
        _STATISTICS_WRITING_APP: mkvpropedit v66.0.0 ('Josie') 64-bit
        _STATISTICS_WRITING_DATE_UTC: 2025-06-09 12:58:12
        _STATISTICS_TAGS: BPS DURATION NUMBER_OF_FRAMES NUMBER_OF_BYTES
Input #1, matroska,webm, from 'G:\Аниме\Онгоинги\!_30_Весна_2023\Слишком милый кризис\Kawaisugi_Crisis_[03]_[AniLibria_TV]_[WEBRip_1080p].mkv':
  Metadata:
    encoder         : libebml v1.4.2 + libmatroska v1.6.4
    creation_time   : 2025-01-14T16:53:33.000000Z
  Duration: 00:23:42.51, start: 0.000000, bitrate: 2101 kb/s
  Stream #1:0(jpn): Video: h264 (High), yuvj420p(pc, bt709, progressive), 1920x1080 [SAR 1:1 DAR 16:9], 23.98 fps, 23.98 tbr, 1k tbn (default) (forced)
      Metadata:
        BPS             : 1900466
        DURATION        : 00:23:42.505000000
        NUMBER_OF_FRAMES: 34106
        NUMBER_OF_BYTES : 337927875
        _STATISTICS_WRITING_APP: mkvmerge v66.0.0 ('Josie') 64-bit
        _STATISTICS_WRITING_DATE_UTC: 2025-01-14 16:53:33
        _STATISTICS_TAGS: BPS DURATION NUMBER_OF_FRAMES NUMBER_OF_BYTES
  Stream #1:1(rus): Audio: aac (LC), 48000 Hz, stereo, fltp (default) (forced)
      Metadata:
        title           : AniLibria.TV
        BPS             : 192088
        DURATION        : 00:23:42.400000000
        NUMBER_OF_FRAMES: 66675
        NUMBER_OF_BYTES : 34153247
        _STATISTICS_WRITING_APP: mkvmerge v66.0.0 ('Josie') 64-bit
        _STATISTICS_WRITING_DATE_UTC: 2025-01-14 16:53:33
        _STATISTICS_TAGS: BPS DURATION NUMBER_OF_FRAMES NUMBER_OF_BYTES
  Stream #1:2(rus): Subtitle: ass (ssa) (default) (forced)
      Metadata:
        title           : Надписи
        BPS             : 0
        DURATION        : 00:00:00.000000000
        NUMBER_OF_FRAMES: 0
        NUMBER_OF_BYTES : 0
        _STATISTICS_WRITING_APP: mkvmerge v66.0.0 ('Josie') 64-bit
        _STATISTICS_WRITING_DATE_UTC: 2025-01-14 16:53:33
        _STATISTICS_TAGS: BPS DURATION NUMBER_OF_FRAMES NUMBER_OF_BYTES
  Stream #1:3(rus): Subtitle: ass (ssa)
      Metadata:
        title           : Субтитры
        BPS             : 222
        DURATION        : 00:23:38.880000000
        NUMBER_OF_FRAMES: 389
        NUMBER_OF_BYTES : 39544
        _STATISTICS_WRITING_APP: mkvmerge v66.0.0 ('Josie') 64-bit
        _STATISTICS_WRITING_DATE_UTC: 2025-01-14 16:53:33
        _STATISTICS_TAGS: BPS DURATION NUMBER_OF_FRAMES NUMBER_OF_BYTES
  Stream #1:4: Attachment: ttf
      Metadata:
        filename        : ARIAL.TTF
        mimetype        : application/x-truetype-font
  Stream #1:5: Attachment: ttf
      Metadata:
        filename        : tt0142m.ttf
        mimetype        : application/x-truetype-font
Stream mapping:
  Stream #0:0 (hevc) -> settb:default
  Stream #1:0 (h264) -> settb:default
  ssim:default -> Stream #0:0 (wrapped_avframe)
  Stream #0:1 -> #0:1 (aac (native) -> pcm_s16le (native))
[swscaler @ 0000025a1eb9b5c0] deprecated pixel format used, make sure you did set range correctly
Output #0, null, to 'pipe:':
  Metadata:
    encoder         : Lavf61.7.100
  Stream #0:0: Video: wrapped_avframe, yuv420p10le(pc, bt709, progressive), 1920x1080 [SAR 1:1 DAR 16:9], q=2-31, 200 kb/s, 23.98 fps, 23.98 tbn
      Metadata:
        encoder         : Lavc61.19.100 wrapped_avframe
  Stream #0:1(rus): Audio: pcm_s16le, 48000 Hz, stereo, s16, 1536 kb/s (default) (forced)
      Metadata:
        title           : AniLibria.TV
        _STATISTICS_TAGS: BPS DURATION NUMBER_OF_FRAMES NUMBER_OF_BYTES
        BPS             : 193453
        DURATION        : 00:23:42.400000000
        NUMBER_OF_FRAMES: 66676
        NUMBER_OF_BYTES : 34396004
        _STATISTICS_WRITING_APP: mkvpropedit v66.0.0 ('Josie') 64-bit
        _STATISTICS_WRITING_DATE_UTC: 2025-06-09 12:58:12
        encoder         : Lavc61.19.100 pcm_s16le
frame=  151 fps=0.0 q=-0.0 size=N/A time=00:00:06.29 bitrate=N/A speed=12.3x    frame=  337 fps=330 q=-0.0 size=N/A time=00:00:14.05 bitrate=N/A speed=13.8x    frame=  526 fps=340 q=-0.0 size=N/A time=00:00:21.93 bitrate=N/A speed=14.2x    frame=  763 fps=371 q=-0.0 size=N/A time=00:00:31.82 bitrate=N/A speed=15.5x    frame= 1000 fps=389 q=-0.0 size=N/A time=00:00:41.70 bitrate=N/A speed=16.2x    frame= 1235 fps=399 q=-0.0 size=N/A time=00:00:51.50 bitrate=N/A speed=16.7x    frame= 1471 fps=409 q=-0.0 size=N/A time=00:01:01.35 bitrate=N/A speed=  17x    frame= 1706 fps=413 q=-0.0 size=N/A time=00:01:11.15 bitrate=N/A speed=17.2x    frame= 1939 fps=418 q=-0.0 size=N/A time=00:01:20.87 bitrate=N/A speed=17.4x    frame= 2156 fps=418 q=-0.0 size=N/A time=00:01:29.92 bitrate=N/A speed=17.4x    frame= 2365 fps=417 q=-0.0 size=N/A time=00:01:38.64 bitrate=N/A speed=17.4x    frame= 2593 fps=420 q=-0.0 size=N/A time=00:01:48.14 bitrate=N/A speed=17.5x    frame= 2834 fps=423 q=-0.0 size=N/A time=00:01:58.20 bitrate=N/A speed=17.6x    frame= 3076 fps=426 q=-0.0 size=N/A time=00:02:08.29 bitrate=N/A speed=17.8x    frame= 3290 fps=425 q=-0.0 size=N/A time=00:02:17.22 bitrate=N/A speed=17.7x    frame= 3417 fps=414 q=-0.0 size=N/A time=00:02:22.51 bitrate=N/A speed=17.3x    frame= 3667 fps=419 q=-0.0 size=N/A time=00:02:32.94 bitrate=N/A speed=17.5x    frame= 3938 fps=424 q=-0.0 size=N/A time=00:02:44.24 bitrate=N/A speed=17.7x    frame= 4193 fps=428 q=-0.0 size=N/A time=00:02:54.88 bitrate=N/A speed=17.9x    frame= 4421 fps=428 q=-0.0 size=N/A time=00:03:04.39 bitrate=N/A speed=17.9x    frame= 4666 fps=430 q=-0.0 size=N/A time=00:03:14.61 bitrate=N/A speed=17.9x    frame= 4918 fps=433 q=-0.0 size=N/A time=00:03:25.12 bitrate=N/A speed=  18x    frame= 5157 fps=434 q=-0.0 size=N/A time=00:03:35.08 bitrate=N/A speed=18.1x    frame= 5356 fps=432 q=-0.0 size=N/A time=00:03:43.38 bitrate=N/A speed=  18x    frame= 5493 fps=426 q=-0.0 size=N/A time=00:03:49.10 bitrate=N/A speed=17.8x    frame= 5716 fps=426 q=-0.0 size=N/A time=00:03:58.40 bitrate=N/A speed=17.8x    frame= 5973 fps=429 q=-0.0 size=N/A time=00:04:09.12 bitrate=N/A speed=17.9x    frame= 6200 fps=429 q=-0.0 size=N/A time=00:04:18.59 bitrate=N/A speed=17.9x    frame= 6441 fps=431 q=-0.0 size=N/A time=00:04:28.64 bitrate=N/A speed=  18x    frame= 6694 fps=432 q=-0.0 size=N/A time=00:04:39.19 bitrate=N/A speed=  18x    frame= 6936 fps=433 q=-0.0 size=N/A time=00:04:49.28 bitrate=N/A speed=18.1x    frame= 7197 fps=436 q=-0.0 size=N/A time=00:05:00.17 bitrate=N/A speed=18.2x    frame= 7427 fps=436 q=-0.0 size=N/A time=00:05:09.76 bitrate=N/A speed=18.2x    frame= 7667 fps=437 q=-0.0 size=N/A time=00:05:19.77 bitrate=N/A speed=18.2x    frame= 7934 fps=439 q=-0.0 size=N/A time=00:05:30.91 bitrate=N/A speed=18.3x    frame= 8165 fps=440 q=-0.0 size=N/A time=00:05:40.54 bitrate=N/A speed=18.3x    frame= 8425 fps=441 q=-0.0 size=N/A time=00:05:51.39 bitrate=N/A speed=18.4x    frame= 8669 fps=442 q=-0.0 size=N/A time=00:06:01.56 bitrate=N/A speed=18.4x    frame= 8899 fps=442 q=-0.0 size=N/A time=00:06:11.16 bitrate=N/A speed=18.4x    frame= 9139 fps=443 q=-0.0 size=N/A time=00:06:21.17 bitrate=N/A speed=18.5x    frame= 9381 fps=443 q=-0.0 size=N/A time=00:06:31.26 bitrate=N/A speed=18.5x    frame= 9601 fps=443 q=-0.0 size=N/A time=00:06:40.44 bitrate=N/A speed=18.5x    frame= 9848 fps=444 q=-0.0 size=N/A time=00:06:50.74 bitrate=N/A speed=18.5x    frame=10119 fps=446 q=-0.0 size=N/A time=00:07:02.04 bitrate=N/A speed=18.6x    frame=10365 fps=447 q=-0.0 size=N/A time=00:07:12.30 bitrate=N/A speed=18.6x    frame=10636 fps=448 q=-0.0 size=N/A time=00:07:23.60 bitrate=N/A speed=18.7x    frame=10873 fps=448 q=-0.0 size=N/A time=00:07:33.49 bitrate=N/A speed=18.7x    frame=11110 fps=449 q=-0.0 size=N/A time=00:07:43.37 bitrate=N/A speed=18.7x    frame=11367 fps=450 q=-0.0 size=N/A time=00:07:54.09 bitrate=N/A speed=18.7x    frame=11621 fps=450 q=-0.0 size=N/A time=00:08:04.69 bitrate=N/A speed=18.8x    frame=11863 fps=451 q=-0.0 size=N/A time=00:08:14.78 bitrate=N/A speed=18.8x    frame=12098 fps=451 q=-0.0 size=N/A time=00:08:24.58 bitrate=N/A speed=18.8x    frame=12320 fps=451 q=-0.0 size=N/A time=00:08:33.84 bitrate=N/A speed=18.8x    frame=12576 fps=451 q=-0.0 size=N/A time=00:08:44.52 bitrate=N/A speed=18.8x    frame=12824 fps=452 q=-0.0 size=N/A time=00:08:54.86 bitrate=N/A speed=18.9x    frame=13022 fps=451 q=-0.0 size=N/A time=00:09:03.12 bitrate=N/A speed=18.8x    frame=13276 fps=452 q=-0.0 size=N/A time=00:09:13.71 bitrate=N/A speed=18.8x    frame=13536 fps=452 q=-0.0 size=N/A time=00:09:24.56 bitrate=N/A speed=18.9x    frame=13790 fps=453 q=-0.0 size=N/A time=00:09:35.19 bitrate=N/A speed=18.9x    frame=14043 fps=454 q=-0.0 size=N/A time=00:09:45.71 bitrate=N/A speed=18.9x    frame=14237 fps=452 q=-0.0 size=N/A time=00:09:53.80 bitrate=N/A speed=18.9x    frame=14477 fps=453 q=-0.0 size=N/A time=00:10:03.81 bitrate=N/A speed=18.9x    frame=14691 fps=452 q=-0.0 size=N/A time=00:10:12.73 bitrate=N/A speed=18.9x    frame=14935 fps=452 q=-0.0 size=N/A time=00:10:22.91 bitrate=N/A speed=18.9x    frame=15153 fps=452 q=-0.0 size=N/A time=00:10:32.00 bitrate=N/A speed=18.8x    frame=15393 fps=452 q=-0.0 size=N/A time=00:10:42.01 bitrate=N/A speed=18.9x    frame=15636 fps=452 q=-0.0 size=N/A time=00:10:52.15 bitrate=N/A speed=18.9x    frame=15829 fps=451 q=-0.0 size=N/A time=00:11:00.20 bitrate=N/A speed=18.8x    frame=16084 fps=452 q=-0.0 size=N/A time=00:11:10.83 bitrate=N/A speed=18.8x    frame=16325 fps=452 q=-0.0 size=N/A time=00:11:20.88 bitrate=N/A speed=18.9x    frame=16557 fps=452 q=-0.0 size=N/A time=00:11:30.56 bitrate=N/A speed=18.9x    frame=16830 fps=453 q=-0.0 size=N/A time=00:11:41.95 bitrate=N/A speed=18.9x    frame=17057 fps=453 q=-0.0 size=N/A time=00:11:51.41 bitrate=N/A speed=18.9x    frame=17299 fps=453 q=-0.0 size=N/A time=00:12:01.51 bitrate=N/A speed=18.9x    frame=17553 fps=454 q=-0.0 size=N/A time=00:12:12.10 bitrate=N/A speed=18.9x    frame=17729 fps=452 q=-0.0 size=N/A time=00:12:19.44 bitrate=N/A speed=18.9x    frame=17925 fps=451 q=-0.0 size=N/A time=00:12:27.62 bitrate=N/A speed=18.8x    frame=18156 fps=451 q=-0.0 size=N/A time=00:12:37.25 bitrate=N/A speed=18.8x    frame=18375 fps=451 q=-0.0 size=N/A time=00:12:46.39 bitrate=N/A speed=18.8x    frame=18605 fps=451 q=-0.0 size=N/A time=00:12:55.98 bitrate=N/A speed=18.8x    frame=18853 fps=451 q=-0.0 size=N/A time=00:13:06.32 bitrate=N/A speed=18.8x    frame=19086 fps=451 q=-0.0 size=N/A time=00:13:16.04 bitrate=N/A speed=18.8x    frame=19334 fps=452 q=-0.0 size=N/A time=00:13:26.38 bitrate=N/A speed=18.8x    frame=19569 fps=452 q=-0.0 size=N/A time=00:13:36.19 bitrate=N/A speed=18.8x    frame=19797 fps=452 q=-0.0 size=N/A time=00:13:45.69 bitrate=N/A speed=18.8x    frame=20058 fps=452 q=-0.0 size=N/A time=00:13:56.58 bitrate=N/A speed=18.9x    frame=20315 fps=453 q=-0.0 size=N/A time=00:14:07.30 bitrate=N/A speed=18.9x    frame=20553 fps=453 q=-0.0 size=N/A time=00:14:17.23 bitrate=N/A speed=18.9x    frame=20818 fps=453 q=-0.0 size=N/A time=00:14:28.28 bitrate=N/A speed=18.9x    frame=21080 fps=454 q=-0.0 size=N/A time=00:14:39.21 bitrate=N/A speed=18.9x    frame=21315 fps=454 q=-0.0 size=N/A time=00:14:49.01 bitrate=N/A speed=18.9x    frame=21528 fps=454 q=-0.0 size=N/A time=00:14:57.89 bitrate=N/A speed=18.9x    frame=21751 fps=453 q=-0.0 size=N/A time=00:15:07.19 bitrate=N/A speed=18.9x    frame=21971 fps=453 q=-0.0 size=N/A time=00:15:16.37 bitrate=N/A speed=18.9x    frame=22203 fps=453 q=-0.0 size=N/A time=00:15:26.05 bitrate=N/A speed=18.9x    frame=22444 fps=453 q=-0.0 size=N/A time=00:15:36.10 bitrate=N/A speed=18.9x    frame=22697 fps=454 q=-0.0 size=N/A time=00:15:46.65 bitrate=N/A speed=18.9x    frame=22941 fps=454 q=-0.0 size=N/A time=00:15:56.83 bitrate=N/A speed=18.9x    frame=23172 fps=454 q=-0.0 size=N/A time=00:16:06.46 bitrate=N/A speed=18.9x    frame=23417 fps=454 q=-0.0 size=N/A time=00:16:16.68 bitrate=N/A speed=18.9x    frame=23657 fps=454 q=-0.0 size=N/A time=00:16:26.69 bitrate=N/A speed=18.9x    frame=23885 fps=454 q=-0.0 size=N/A time=00:16:36.20 bitrate=N/A speed=18.9x    frame=24114 fps=454 q=-0.0 size=N/A time=00:16:45.75 bitrate=N/A speed=18.9x    frame=24322 fps=453 q=-0.0 size=N/A time=00:16:54.43 bitrate=N/A speed=18.9x    frame=24531 fps=453 q=-0.0 size=N/A time=00:17:03.14 bitrate=N/A speed=18.9x    frame=24776 fps=453 q=-0.0 size=N/A time=00:17:13.36 bitrate=N/A speed=18.9x    frame=24958 fps=452 q=-0.0 size=N/A time=00:17:20.95 bitrate=N/A speed=18.9x    frame=25210 fps=452 q=-0.0 size=N/A time=00:17:31.46 bitrate=N/A speed=18.9x    frame=25471 fps=453 q=-0.0 size=N/A time=00:17:42.35 bitrate=N/A speed=18.9x    frame=25691 fps=453 q=-0.0 size=N/A time=00:17:51.52 bitrate=N/A speed=18.9x    frame=25902 fps=452 q=-0.0 size=N/A time=00:18:00.32 bitrate=N/A speed=18.9x    frame=26104 fps=452 q=-0.0 size=N/A time=00:18:08.79 bitrate=N/A speed=18.8x    frame=26346 fps=452 q=-0.0 size=N/A time=00:18:18.84 bitrate=N/A speed=18.8x    frame=26582 fps=452 q=-0.0 size=N/A time=00:18:28.69 bitrate=N/A speed=18.9x    frame=26837 fps=452 q=-0.0 size=N/A time=00:18:39.32 bitrate=N/A speed=18.9x    frame=27066 fps=452 q=-0.0 size=N/A time=00:18:48.87 bitrate=N/A speed=18.9x    frame=27295 fps=452 q=-0.0 size=N/A time=00:18:58.42 bitrate=N/A speed=18.9x    frame=27535 fps=452 q=-0.0 size=N/A time=00:19:08.43 bitrate=N/A speed=18.9x    frame=27704 fps=451 q=-0.0 size=N/A time=00:19:15.48 bitrate=N/A speed=18.8x    frame=27951 fps=451 q=-0.0 size=N/A time=00:19:25.78 bitrate=N/A speed=18.8x    frame=28169 fps=451 q=-0.0 size=N/A time=00:19:34.88 bitrate=N/A speed=18.8x    frame=28417 fps=451 q=-0.0 size=N/A time=00:19:45.22 bitrate=N/A speed=18.8x    frame=28675 fps=452 q=-0.0 size=N/A time=00:19:55.98 bitrate=N/A speed=18.8x    frame=28902 fps=452 q=-0.0 size=N/A time=00:20:05.45 bitrate=N/A speed=18.8x    frame=29173 fps=452 q=-0.0 size=N/A time=00:20:16.75 bitrate=N/A speed=18.9x    frame=29420 fps=453 q=-0.0 size=N/A time=00:20:27.05 bitrate=N/A speed=18.9x    frame=29676 fps=453 q=-0.0 size=N/A time=00:20:37.73 bitrate=N/A speed=18.9x    frame=29944 fps=453 q=-0.0 size=N/A time=00:20:48.91 bitrate=N/A speed=18.9x    frame=30213 fps=454 q=-0.0 size=N/A time=00:21:00.13 bitrate=N/A speed=18.9x    frame=30472 fps=454 q=-0.0 size=N/A time=00:21:10.93 bitrate=N/A speed=18.9x    frame=30734 fps=455 q=-0.0 size=N/A time=00:21:21.86 bitrate=N/A speed=  19x    frame=30981 fps=455 q=-0.0 size=N/A time=00:21:32.16 bitrate=N/A speed=  19x    frame=31189 fps=455 q=-0.0 size=N/A time=00:21:40.84 bitrate=N/A speed=  19x    frame=31375 fps=454 q=-0.0 size=N/A time=00:21:48.59 bitrate=N/A speed=18.9x    frame=31601 fps=454 q=-0.0 size=N/A time=00:21:58.02 bitrate=N/A speed=18.9x    frame=31783 fps=453 q=-0.0 size=N/A time=00:22:05.61 bitrate=N/A speed=18.9x    frame=31988 fps=452 q=-0.0 size=N/A time=00:22:14.16 bitrate=N/A speed=18.9x    frame=32148 fps=451 q=-0.0 size=N/A time=00:22:20.83 bitrate=N/A speed=18.8x    frame=32308 fps=451 q=-0.0 size=N/A time=00:22:27.51 bitrate=N/A speed=18.8x    frame=32476 fps=450 q=-0.0 size=N/A time=00:22:34.51 bitrate=N/A speed=18.8x    frame=32631 fps=449 q=-0.0 size=N/A time=00:22:40.98 bitrate=N/A speed=18.7x    frame=32783 fps=448 q=-0.0 size=N/A time=00:22:47.32 bitrate=N/A speed=18.7x    frame=32943 fps=447 q=-0.0 size=N/A time=00:22:53.99 bitrate=N/A speed=18.6x    frame=33107 fps=446 q=-0.0 size=N/A time=00:23:00.83 bitrate=N/A speed=18.6x    frame=33307 fps=445 q=-0.0 size=N/A time=00:23:09.17 bitrate=N/A speed=18.6x    frame=33521 fps=445 q=-0.0 size=N/A time=00:23:18.10 bitrate=N/A speed=18.6x    frame=33763 fps=445 q=-0.0 size=N/A time=00:23:28.19 bitrate=N/A speed=18.6x    frame=33985 fps=445 q=-0.0 size=N/A time=00:23:37.45 bitrate=N/A speed=18.6x    [Parsed_ssim_10 @ 0000025a1ea4f980] SSIM Y:0.994760 (22.806575) U:0.995746 (23.711622) V:0.995685 (23.650070) All:0.995078 (23.078869)
[out#0/null @ 0000025a083eee80] video:14654KiB audio:266704KiB subtitle:0KiB other streams:0KiB global headers:0KiB muxing overhead: unknown
frame=34105 fps=445 q=-0.0 Lsize=N/A time=00:23:42.42 bitrate=N/A speed=18.6x    
